<svg width="38" height="37" viewBox="0 0 38 37" fill="none" xmlns="http://www.w3.org/2000/svg">
<circle cx="19.4219" cy="18.5" r="18.5" fill="url(#paint0_radial_2110_9891)" fill-opacity="0.75"/>
<path d="M29.8969 13.6807C29.7842 13.2304 29.5546 12.8179 29.2315 12.4847C28.9083 12.1516 28.503 11.9096 28.0564 11.7832C26.4246 11.3848 19.8974 11.3848 19.8974 11.3848C19.8974 11.3848 13.3702 11.3848 11.7384 11.8212C11.2918 11.9475 10.8864 12.1895 10.5633 12.5227C10.2401 12.8558 10.0106 13.2684 9.89789 13.7186C9.59925 15.3747 9.45317 17.0546 9.46148 18.7373C9.45083 20.4327 9.59693 22.1255 9.89789 23.794C10.0221 24.2303 10.2568 24.6271 10.5792 24.9462C10.9016 25.2653 11.3009 25.4958 11.7384 25.6155C13.3702 26.0519 19.8974 26.0519 19.8974 26.0519C19.8974 26.0519 26.4246 26.0519 28.0564 25.6155C28.503 25.4892 28.9083 25.2472 29.2315 24.914C29.5546 24.5809 29.7842 24.1684 29.8969 23.7181C30.1932 22.0745 30.3393 20.4074 30.3333 18.7373C30.3439 17.0419 30.1978 15.3492 29.8969 13.6807Z" stroke="#005268" stroke-width="2" stroke-linecap="round" stroke-linejoin="round"/>
<path d="M17.7617 21.8413L23.2168 18.739L17.7617 15.6367V21.8413Z" stroke="#005268" stroke-width="2" stroke-linecap="round" stroke-linejoin="round"/>
<defs>
<radialGradient id="paint0_radial_2110_9891" cx="0" cy="0" r="1" gradientUnits="userSpaceOnUse" gradientTransform="translate(6.42187 4) rotate(58.2405) scale(37.0473)">
<stop offset="0.0358429" stop-color="#EDFEFD"/>
<stop offset="1" stop-color="#EDFEFD" stop-opacity="0.54"/>
</radialGradient>
</defs>
</svg>
